<svg xmlns="http://www.w3.org/2000/svg" version="1.1" xmlns:xlink="http://www.w3.org/1999/xlink" xmlns:svgjs="http://svgjs.dev/svgjs" width="1500" height="980" viewBox="0 0 1500 980"><g transform="matrix(1,0,0,1,-0.4880930296757242,0.3967611336032064)"><svg viewBox="0 0 378 247" data-background-color="#de1f1f" preserveAspectRatio="xMidYMid meet" height="980" width="1500" xmlns="http://www.w3.org/2000/svg" xmlns:xlink="http://www.w3.org/1999/xlink"><g id="tight-bounds" transform="matrix(1,0,0,1,0.12299944347827818,-0.09999999999999432)"><svg viewBox="0 0 377.75400111304344 247.2" height="247.2" width="377.75400111304344"><g><svg viewBox="0 0 377.75400111304344 247.2" height="247.2" width="377.75400111304344"><g transform="matrix(1,0,0,1,180.35226198260867,0)"><svg viewBox="0 0 197.40173913043478 247.2" height="247.2" width="197.40173913043478"><g id="textblocktransform"><svg viewBox="0 0 197.40173913043478 247.2" height="247.2" width="197.40173913043478" id="textblock"><g><svg viewBox="0 0 197.40173913043478 247.2" height="247.2" width="197.40173913043478"><g transform="matrix(1,0,0,1,0,0)"><svg width="197.40173913043478" viewBox="1.6 -34.5 27.549999999999997 34.5" height="247.2" data-palette-color="#ffffff"><path d="M13.8-12L13.8-12 11.55-12 11.55-6.1Q15.2-5.3 16.1-4.15L16.1-4.15 15.6 0 2.1 0 1.6-4.15Q2.25-5 4.35-5.8L4.35-5.8 4.35-28.65Q2.3-29.4 1.6-30.35L1.6-30.35 2.1-34.5 15.35-34.5Q22.3-34.4 25.73-31.98 29.15-29.55 29.15-23.35L29.15-23.35Q29.15-12 13.8-12ZM14.55-29.05L14.55-29.05 11.55-29.05 11.55-17.45 14.9-17.45Q18.3-17.45 19.98-18.8 21.65-20.15 21.65-23.48 21.65-26.8 19.83-27.93 18-29.05 14.55-29.05Z" opacity="1" transform="matrix(1,0,0,1,0,0)" fill="#ffffff" class="wordmark-text-0" data-fill-palette-color="primary" id="text-0"></path></svg></g></svg></g></svg></g></svg></g><g transform="matrix(1,0,0,1,0,73.57956842626524)"><svg viewBox="0 0 121.99427478260867 100.04086314746952" height="100.04086314746952" width="121.99427478260867"><g><svg xmlns="http://www.w3.org/2000/svg" xmlns:xlink="http://www.w3.org/1999/xlink" version="1.1" x="0" y="0" viewBox="6.099999999999994 14 87.80000000000001 72" enable-background="new 0 0 100 100" xml:space="preserve" height="100.04086314746952" width="121.99427478260867" class="icon-icon-0" data-fill-palette-color="accent" id="icon-0"><path d="M7.1 27.2L46.1 86h11.4 1.8l0.7-1.6L58 81.5v0L29.6 37h8.4l20.2 30.8 28.1-48.9 4 6.2-32 56.4 1.9 2.9L93.9 25 88 15.7 86.9 14h-1.4l-72.4 0-6 9.9-1 1.7L7.1 27.2zM23 33v0.6l0.1 0 0.4 0.4 31.7 48.8-7.7-0.1L10.8 27.2l54.4 0-3.4 5.9L61.8 33H23zM60.1 37l-8.5 15.4L41.5 37H60.1zM14.9 17.1l68.7 0L58 61.6 53.6 55l10-18h0l0.4-1 1.7-3.2 4.8-8.8h-0.1 0H10.7L14.9 17.1z" fill="#ffffff" data-fill-palette-color="accent"></path></svg></g></svg></g></svg></g><defs></defs></svg><rect width="377.75400111304344" height="247.2" fill="none" stroke="none" visibility="hidden"></rect></g></svg></g></svg>